<?xml version="1.0" encoding="utf-8"?>
<!-- Generator: Adobe Illustrator 21.0.0, SVG Export Plug-In . SVG Version: 6.00 Build 0)  -->
<svg version="1.1" id="Layer_1" xmlns="http://www.w3.org/2000/svg" xmlns:xlink="http://www.w3.org/1999/xlink" x="0px" y="0px"
	 viewBox="0 0 32 32" style="enable-background:new 0 0 32 32;" xml:space="preserve">
<g id="jSbLLL.tif">
	<g>
		<path d="M26.8,8.1c2.4,5,2.3,9.8-0.8,14.4c-0.4,0.6-0.2,0.9,0.2,1.3c1.4,1.4,2.8,2.9,4.3,4.3c0.9,0.9,0.5,1.4-0.2,2
			c-0.6,0.6-1.1,1.4-2.1,0.4c-1.4-1.5-2.8-2.9-4.3-4.3c-0.4-0.4-0.7-0.7-1.3-0.3c-4.9,3.3-10,3.3-15.1,0.5C4,24,1.7,20.8,1.1,16.6
			C0.2,10.3,3.7,4.3,9.6,2c5.9-2.4,12.6-0.4,16.3,4.7C26.2,7.2,26.5,7.6,26.8,8.1z M14.7,25c5.8,0,10.5-4.6,10.4-10.4
			c0-5.7-4.7-10.3-10.4-10.3C9,4.3,4.2,9,4.3,14.7C4.3,20.4,8.9,25,14.7,25z"/>
		<path d="M15.9,16.5c0,1.5,0,3.1,0,4.6c0,1-0.5,1.1-1.3,1c-0.7,0-1.4,0-1.4-1.1c0.1-3.2,0.1-6.4,0-9.6c0-1.1,0.6-1,1.3-1
			c0.7,0,1.4-0.2,1.4,1C15.8,13.2,15.9,14.8,15.9,16.5z"/>
		<path d="M10.8,21c-2.4-1.5-3.4-4.2-2.5-6.4c0.3-0.9,1.3-0.3,1.9-0.4c0.5-0.1,0.6,0.2,0.6,0.7C10.8,16.8,10.8,18.8,10.8,21z"/>
		<path d="M18.7,20.8c0-1.5-0.1-2.9,0-4.3c0.1-1.1,1.1-0.5,1.6-0.6c0.5-0.1,1-0.1,1,0.7C21.4,18.4,20.6,19.8,18.7,20.8z"/>
	</g>
</g>
</svg>
