<?xml version="1.0" encoding="utf-8"?>
<!-- Generator: Adobe Illustrator 21.0.0, SVG Export Plug-In . SVG Version: 6.00 Build 0)  -->
<svg version="1.1" id="Layer_1" xmlns="http://www.w3.org/2000/svg" xmlns:xlink="http://www.w3.org/1999/xlink" x="0px" y="0px"
	 viewBox="0 0 32 32" style="enable-background:new 0 0 32 32;" xml:space="preserve">
<path d="M15.9,0.1C7.1,0.1,0,7.3,0,16.1C0,24.9,7.1,32,15.9,32c8.8,0,15.9-7.1,15.9-15.9C31.9,7.3,24.7,0.1,15.9,0.1z M15.9,30.5
	C8,30.5,1.5,24,1.5,16.1c0-0.5,0-1,0.1-1.5c1.2-4,4-5.5,6.7-5.5c0.5,0,1.1,0.1,1.6,0.2c-1.9,1.7-3.1,4.1-3.1,6.9
	c0,5.1,4.1,9.1,9.1,9.1c1.5,0,2.8-0.3,4.1-1c0.7,0.3,1.6,0.4,2.6,0.5c0.4,0,0.8,0.1,1.2,0.1c1.2,0,2.5-0.2,3.9-0.5
	C25.1,28.1,20.8,30.5,15.9,30.5z M17.2,17.7c-0.4-1-0.6-1.8-0.6-1.8c0,0,0,0,0,0c-0.7-2.8-1.5-5.3-3-7c0.8-0.2,1.6-0.4,2.4-0.4
	c4.2,0,7.6,3.4,7.6,7.6h0c0,2.5-1.2,4.8-3.1,6.1c-0.3-0.1-0.5-0.2-0.6-0.2c-0.3-0.1-0.7-0.6-1.1-1.2C18.1,19.9,17.6,18.7,17.2,17.7z
	 M18.3,23.3c-0.8,0.3-1.6,0.4-2.4,0.4c-0.9,0-1.8-0.2-2.6-0.5c0-0.2,0-0.4,0-0.6c0-0.5,0.1-1,0.1-1.3c0.2-1,0.9-2.6,1.5-3.9
	c0.2-0.4,0.3-0.7,0.5-1c0.9,3.2,1.5,5.1,2.5,6.4C18,23,18.2,23.2,18.3,23.3z M14.5,14c0.1,0.3,0.3,0.6,0.4,0.9
	c-1.8,3.6-2.9,5.4-3.4,7.3c-1.9-1.4-3.1-3.6-3.1-6.2c0-2.6,1.3-4.8,3.2-6.2c0.4,0.2,0.8,0.5,1.1,0.9C13.3,11.4,14,12.8,14.5,14z
	 M28.3,21.2c-1.3,1.1-3,1.4-4.6,1.4c-0.4,0-0.9,0-1.3-0.1c1.7-1.7,2.7-4,2.7-6.5h0c0-5.1-4.1-9.1-9.1-9.1c-1.3,0-2.6,0.3-3.7,0.8
	c-0.1-0.1-0.3-0.2-0.4-0.3c-0.6-0.4-1.9-0.9-3.6-0.9c-1.2,0-2.6,0.3-4,1.1c2.6-3.6,6.9-6,11.7-6c8,0,14.4,6.4,14.4,14.4
	c0,0.6,0,1.2-0.1,1.8C29.8,19.5,29.1,20.5,28.3,21.2z"/>
</svg>
