<?xml version="1.0" encoding="utf-8"?>
<!-- Generator: Adobe Illustrator 21.1.0, SVG Export Plug-In . SVG Version: 6.00 Build 0)  -->
<svg version="1.1" id="Layer_1" xmlns="http://www.w3.org/2000/svg" xmlns:xlink="http://www.w3.org/1999/xlink" x="0px" y="0px"
	 viewBox="0 0 104.2 103.7" style="enable-background:new 0 0 104.2 103.7;" xml:space="preserve">
<path d="M52.1,0.8c27.9,0,50.6,22.6,50.6,50.5c0,0.1,0,0.1,0,0.2c0,28.4-22.7,50.8-51.6,50.5C23.6,101.8,1,78.8,1.4,50.2
	C1.8,23.3,24.5,0.8,52.1,0.8z M76.9,51.3l-0.6-0.2c-0.6,1.8-1.3,3.6-2.1,5.3c-1.4,2.5-4.3,3.8-7,3.1c-2.1-0.5-3.7-2.5-3.9-5.3
	c-0.1-1.4,0.2-2.8,0.7-4.1c1.7-4.5,3.6-8.8,5.3-13.3c0.8-2,1.3-4.2,1.6-6.4c0.1-1.1-0.8-3-1.7-3.4c-1.4-0.4-2.9-0.1-4,0.7
	c-1.2,1.2-2,2.8-2.3,4.5c-0.8,3.2-1.3,6.4-2,9.7c-1.3,6.3-3.9,11.8-9,15.8c-2.4,2.1-5.9,2.3-8.5,0.4c-2.3-1.6-3.2-4.3-2.3-7.6
	c0.8-2.7,2-5.3,2.9-8c1.3-3.9,2.6-7.7,3.7-11.6c0.4-1.6,0.3-3.4-1.6-4.2s-3.6,0-4.7,1.6c-0.7,1-1.2,2.2-1.6,3.4
	c-0.5,1.9-0.8,3.8-1,5.8c-0.9,6.9-1.8,13.8-4.2,20.5c-2.1,5.6-3.5,11.4-5.1,17.1c-0.6,2.4-1,4.8-1.1,7.2c-0.2,1.7,1,3.3,2.7,3.6
	c0.1,0,0.2,0,0.2,0c1.6,0.2,3.1-1.3,3.2-3.4c-0.1-1.4-0.3-2.8-0.6-4.2c-0.2-1.2-0.8-2.3-0.6-3.4c1.1-6.5,2.4-12.9,3.7-19.4
	c0.3-0.9,0.6-1.7,1.1-2.5c0.2,2.8,0.6,5.5,1.1,8.2c0.9,3.3,3.5,4.9,6.9,4.9c3.3,0.2,6.5-1,8.8-3.3c2.3-2.2,4.3-4.8,6.3-7.1
	c0,1.4,0.1,2.8,0.2,4.2c0.4,2.8,1.3,5.3,4.5,6c3,0.7,6.1-0.4,7.9-2.9C76.5,59.7,77.1,55.6,76.9,51.3z"/>
</svg>
