<?xml version="1.0" encoding="utf-8"?>
<!-- Generator: Adobe Illustrator 16.0.4, SVG Export Plug-In . SVG Version: 6.00 Build 0)  -->
<!DOCTYPE svg PUBLIC "-//W3C//DTD SVG 1.1//EN" "http://www.w3.org/Graphics/SVG/1.1/DTD/svg11.dtd">
<svg version="1.1" id="Layer_1" xmlns="http://www.w3.org/2000/svg" xmlns:xlink="http://www.w3.org/1999/xlink" x="0px" y="0px"
	 width="32px" height="32px" viewBox="0 0 32 32" enable-background="new 0 0 32 32" xml:space="preserve">
<path id="path2" d="M31.892,6.352l-0.697,1.07c0,0-1.747-2.018-4.942-1.664c-3.198,0.357-8.836,3.682-9.71,10.984
	C15.67,24.043,19.1,32,19.1,32H3.635c0,0-0.407-2.61,0.582-7.601c0.989-4.986,2.441-8.31,4.941-13.062
	c2.5-4.748,6.512-8.666,12.327-9.202C27.297,1.604,31.892,6.352,31.892,6.352z M0.553,24.047l-0.349,2.968l2.849,0.355l0.523-3.086
	L0.553,24.047z M6.134,15.197L3.46,14.128L2.587,16.62l2.732,0.891L6.134,15.197z M10.671,7.66L8.637,6.292L7.011,8.132l2.091,1.427
	L10.671,7.66z M16.542,2.79l-1.396-1.605l-1.918,1.01l1.397,1.72L16.542,2.79z M22.764,1.898l-0.232-1.545l-2.5-0.116l0.35,1.724
	L22.764,1.898z M30.032,3.503l-1.917-1.427l-0.059,1.069l1.627,0.892L30.032,3.503z M27.763,7.541l1.572,0.178V7.006l-1.572-0.356
	V7.541z M22.764,7.422l0.757,1.423l1.105-0.892L24.39,7.006L22.764,7.422z M21.542,11.044l-1.165-1.78l-1.222,1.13l1.685,1.898
	L21.542,11.044z M17.299,15.732l1.977,1.723l0.466-1.957l-1.688-1.308L17.299,15.732z M17.124,21.67l2.441,1.069l-0.116-1.959
	l-2.208-1.189L17.124,21.67z M21.6,29.27l-1.105-2.313h-2.559l0.582,2.135L21.6,29.27z"/>
</svg>
